<svg width="191" height="191" viewBox="0 0 191 191" fill="none" xmlns="http://www.w3.org/2000/svg">
<path d="M62.7931 35.1839L37.3607 43.2027C36.5176 43.4686 35.8146 44.0585 35.4063 44.8426C34.9981 45.6268 34.9182 46.541 35.184 47.3841L41.1981 66.4585C41.4639 67.3016 42.0538 68.0046 42.838 68.4128C43.6222 68.821 44.5364 68.901 45.3795 68.6352L54.9167 65.6281L55.919 68.8072L51.1505 70.3107L52.1528 73.4898L68.0481 68.478L67.0457 65.2989L62.2772 66.8025L61.2748 63.6234L70.812 60.6164C71.6551 60.3505 72.3581 59.7606 72.7663 58.9765C73.1745 58.1923 73.2545 57.2781 72.9887 56.4349L66.9746 37.3606C66.7087 36.5175 66.1188 35.8145 65.3347 35.4063C64.5505 34.998 63.6363 34.9181 62.7931 35.1839ZM69.8096 57.4373L44.3772 65.4561L38.363 46.3818L63.7955 38.363L69.8096 57.4373Z" fill="#FF9560"/>
<path d="M123.378 37.3609C124.486 33.8488 132.5 33.246 141.279 36.014C150.058 38.782 156.278 43.8728 155.171 47.3849L154.168 50.5632C153.061 54.0752 145.046 54.678 136.267 51.91C127.488 49.142 121.269 44.0512 122.376 40.5391L123.378 37.3609Z" fill="#FF9560"/>
<path d="M120.622 46.104L118.366 53.2569C117.26 56.7642 123.479 61.8574 132.258 64.6254C141.037 67.3934 149.052 66.7906 150.159 63.2785L152.414 56.128C151.096 56.563 149.728 56.8276 148.344 56.9156C144.587 57.199 139.955 56.567 135.265 55.0882C130.578 53.6103 126.422 51.469 123.506 49.0844C122.422 48.2182 121.454 47.2168 120.624 46.1048L120.622 46.104Z" fill="#FF9560"/>
<path d="M148.404 68.8457C147.086 69.2798 145.719 69.5437 144.334 69.6309C140.575 69.9136 135.946 69.2823 131.254 67.8028C126.566 66.3249 122.409 64.1859 119.495 61.799C118.411 60.9327 117.442 59.9314 116.612 58.8193L115.36 62.7916C114.253 66.3036 120.472 71.3945 129.251 74.1625C138.03 76.9305 146.045 76.3277 147.152 72.8156L148.404 68.8457Z" fill="#FF9560"/>
<path d="M43.2016 117.538C44.3089 114.026 52.3237 113.423 61.1026 116.191C69.8816 118.959 76.1011 124.05 74.9937 127.562L73.9916 130.74C72.8843 134.252 64.8696 134.855 56.0906 132.087C47.3116 129.319 41.0921 124.228 42.1995 120.716L43.2016 117.538Z" fill="#FF9560"/>
<path d="M40.4448 126.281L38.1895 133.434C37.0837 136.941 43.3024 142.034 52.0814 144.802C60.8604 147.57 68.8751 146.967 69.9824 143.455L72.237 136.305C70.9194 136.74 69.5515 137.004 68.1668 137.092C64.4102 137.376 59.7784 136.744 55.0885 135.265C50.4009 133.787 46.245 131.646 43.3296 129.261C42.2457 128.395 41.277 127.394 40.4472 126.282L40.4448 126.281Z" fill="#FF9560"/>
<path d="M68.227 149.023C66.9095 149.457 65.5419 149.72 64.1575 149.808C60.3985 150.09 55.7691 149.459 51.0768 147.98C46.3893 146.502 42.2326 144.363 39.318 141.976C38.2341 141.109 37.2654 140.108 36.4355 138.996L35.1831 142.968C34.0758 146.48 40.2953 151.571 49.0742 154.339C57.8532 157.107 65.8679 156.504 66.9753 152.992L68.227 149.023Z" fill="#FF9560"/>
<path d="M142.97 115.361L117.537 123.379C116.694 123.645 115.991 124.235 115.583 125.019C115.175 125.804 115.095 126.718 115.361 127.561L121.375 146.635C121.641 147.478 122.231 148.181 123.015 148.59C123.799 148.998 124.713 149.078 125.556 148.812L135.093 145.805L136.096 148.984L131.327 150.487L132.33 153.667L148.225 148.655L147.222 145.476L142.454 146.979L141.452 143.8L150.989 140.793C151.832 140.527 152.535 139.937 152.943 139.153C153.351 138.369 153.431 137.455 153.165 136.612L147.151 117.537C146.885 116.694 146.296 115.991 145.511 115.583C144.727 115.175 143.813 115.095 142.97 115.361ZM149.986 137.614L124.554 145.633L118.54 126.559L143.972 118.54L149.986 137.614Z" fill="#FF9560"/>
</svg>
